<svg width="107" height="105" viewBox="0 0 107 105" fill="none" xmlns="http://www.w3.org/2000/svg">
<path d="M40.2402 1.9873V51H29.0996V17.9111L24.6494 51H16.748L12.0557 18.668V51H0.915039V1.9873H17.4141C17.8984 4.93392 18.4131 8.40527 18.958 12.4014L20.7139 24.874L23.6201 1.9873H40.2402ZM67.3652 1.9873L74.6611 51H61.6133L60.9775 42.1904H56.4062L55.6494 51H42.4502L48.9287 1.9873H67.3652ZM60.6143 33.502C59.9684 27.9518 59.3226 21.0999 58.6768 12.9463C57.3851 22.3109 56.5778 29.1628 56.2549 33.502H60.6143ZM106.6 23.3604H93.8545V14.8232C93.8545 12.3408 93.7132 10.7969 93.4307 10.1914C93.1683 9.56576 92.5729 9.25293 91.6445 9.25293C90.5951 9.25293 89.929 9.6263 89.6465 10.373C89.3639 11.1198 89.2227 12.7344 89.2227 15.2168V37.9824C89.2227 40.3639 89.3639 41.918 89.6465 42.6445C89.929 43.3711 90.5648 43.7344 91.5537 43.7344C92.5023 43.7344 93.1178 43.3711 93.4004 42.6445C93.7031 41.918 93.8545 40.2126 93.8545 37.5283V31.3828H106.6V33.29C106.6 38.3558 106.236 41.9482 105.51 44.0674C104.803 46.1865 103.219 48.0433 100.757 49.6377C98.3148 51.2321 95.2975 52.0293 91.7051 52.0293C87.9714 52.0293 84.8936 51.3532 82.4717 50.001C80.0498 48.6488 78.4453 46.7819 77.6582 44.4004C76.8711 41.9987 76.4775 38.3962 76.4775 33.5928V19.2734C76.4775 15.7415 76.5986 13.0977 76.8408 11.3418C77.083 9.56576 77.7995 7.86035 78.9902 6.22559C80.2012 4.59082 81.8662 3.30924 83.9854 2.38086C86.1247 1.43229 88.5768 0.958008 91.3418 0.958008C95.0957 0.958008 98.1937 1.68457 100.636 3.1377C103.078 4.59082 104.682 6.40723 105.449 8.58691C106.216 10.7464 106.6 14.1169 106.6 18.6982V23.3604ZM7.42383 53.9873H16.4453C22.4596 53.9873 26.5264 54.2194 28.6455 54.6836C30.7848 55.1478 32.5205 56.3385 33.8525 58.2559C35.2048 60.153 35.8809 63.1904 35.8809 67.3682C35.8809 71.1826 35.4066 73.7458 34.458 75.0576C33.5094 76.3695 31.6426 77.1566 28.8574 77.4189C31.3802 78.0446 33.0755 78.8822 33.9434 79.9316C34.8112 80.9811 35.346 81.9499 35.5479 82.8379C35.7699 83.7057 35.8809 86.1175 35.8809 90.0732V103H24.0439V86.7129C24.0439 84.0892 23.832 82.4645 23.4082 81.8389C23.0046 81.2132 21.9248 80.9004 20.1689 80.9004V103H7.42383V53.9873ZM20.1689 62.373V73.2715C21.6019 73.2715 22.6009 73.0798 23.166 72.6963C23.7513 72.2926 24.0439 71.0111 24.0439 68.8516V66.1572C24.0439 64.6032 23.7614 63.584 23.1963 63.0996C22.6514 62.6152 21.6423 62.373 20.1689 62.373ZM69.9688 82.6865C69.9688 87.611 69.8477 91.1025 69.6055 93.1611C69.3835 95.1995 68.6569 97.0664 67.4258 98.7617C66.2148 100.457 64.57 101.759 62.4912 102.667C60.4124 103.575 57.9906 104.029 55.2256 104.029C52.6019 104.029 50.2406 103.605 48.1416 102.758C46.0628 101.89 44.3877 100.598 43.1162 98.8828C41.8447 97.1673 41.0879 95.3005 40.8457 93.2822C40.6035 91.264 40.4824 87.7321 40.4824 82.6865V74.3008C40.4824 69.3763 40.5934 65.8949 40.8154 63.8564C41.0576 61.7979 41.7842 59.9209 42.9951 58.2256C44.2262 56.5303 45.8812 55.2285 47.96 54.3203C50.0387 53.4121 52.4606 52.958 55.2256 52.958C57.8493 52.958 60.2005 53.3919 62.2793 54.2598C64.3783 55.1074 66.0635 56.389 67.335 58.1045C68.6064 59.82 69.3633 61.6868 69.6055 63.7051C69.8477 65.7233 69.9688 69.2552 69.9688 74.3008V82.6865ZM57.2236 66.5811C57.2236 64.3005 57.0924 62.8473 56.8301 62.2217C56.5879 61.5758 56.0732 61.2529 55.2861 61.2529C54.6201 61.2529 54.1055 61.5153 53.7422 62.04C53.3991 62.5446 53.2275 64.0583 53.2275 66.5811V89.4678C53.2275 92.3135 53.3385 94.0693 53.5605 94.7354C53.8027 95.4014 54.3477 95.7344 55.1953 95.7344C56.0632 95.7344 56.6182 95.3509 56.8604 94.584C57.1025 93.8171 57.2236 91.9906 57.2236 89.1045V66.5811ZM100.575 53.9873L96.125 75.6631L102.846 103H91.0391C89.6263 98.1159 88.3346 92.1722 87.1641 85.1689C86.8411 88.2568 86.3971 91.5365 85.832 95.0078L84.6211 103H72.209L76.8105 75.6631L72.209 53.9873H84.5303C84.7523 55.3395 85.1963 57.5898 85.8623 60.7383C86.387 63.14 86.821 65.3398 87.1641 67.3379L89.8887 53.9873H100.575Z" fill="white"/>
</svg>
